<?xml version="1.0" encoding="UTF-8" standalone="no"?>
<svg
   id="Livello_1"
   data-name="Livello 1"
   viewBox="0 0 240 240"
   version="1.1"
   sodipodi:docname="telegram.svg"
   inkscape:version="1.2.2 (b0a8486541, 2022-12-01)"
   xmlns:inkscape="http://www.inkscape.org/namespaces/inkscape"
   xmlns:sodipodi="http://sodipodi.sourceforge.net/DTD/sodipodi-0.dtd"
   xmlns="http://www.w3.org/2000/svg"
   xmlns:svg="http://www.w3.org/2000/svg">
  <sodipodi:namedview
     id="namedview20"
     pagecolor="#505050"
     bordercolor="#eeeeee"
     borderopacity="1"
     inkscape:showpageshadow="0"
     inkscape:pageopacity="0"
     inkscape:pagecheckerboard="0"
     inkscape:deskcolor="#505050"
     showgrid="false"
     inkscape:zoom="3.1583333"
     inkscape:cx="84.538259"
     inkscape:cy="120.15831"
     inkscape:window-width="1920"
     inkscape:window-height="1080"
     inkscape:window-x="1920"
     inkscape:window-y="0"
     inkscape:window-maximized="1"
     inkscape:current-layer="Livello_1" />
  <defs
     id="defs7">
    <linearGradient
       id="linear-gradient"
       x1="120"
       y1="240"
       x2="120"
       gradientUnits="userSpaceOnUse"
       gradientTransform="matrix(0.75946641,0,0,0.7496211,32.626747,31.093435)">
      <stop
         offset="0"
         stop-color="#1d93d2"
         id="stop2"
         style="stop-color:#346792;stop-opacity:1;" />
      <stop
         offset="1"
         stop-color="#38b0e3"
         id="stop4"
         style="stop-color:#346792;stop-opacity:1;" />
    </linearGradient>
  </defs>
  <title
     id="title9">Telegram_logo</title>
  <ellipse
     cx="123.76272"
     cy="121.04797"
     fill="url(#linear-gradient)"
     id="circle11"
     style="fill:url(#linear-gradient);stroke-width:0.754528"
     rx="91.135971"
     ry="89.954529" />
  <path
     d="m 94.317444,127.62364 10.812526,29.53957 c 0,0 1.35185,2.76386 2.79939,2.76386 1.44754,0 22.97766,-22.10783 22.97766,-22.10783 L 154.8492,92.17481 94.703253,119.9985 Z"
     fill="#c8daea"
     id="path13"
     style="stroke-width:0.754528" />
  <path
     d="m 108.65389,135.19931 -2.07562,21.7735 c 0,0 -0.86883,6.67163 5.8889,0 6.75773,-6.67163 13.22611,-11.81628 13.22611,-11.81628"
     fill="#a9c6d8"
     id="path15"
     style="stroke-width:0.754528" />
  <path
     d="m 94.512626,128.67761 -22.241733,-7.15288 c 0,0 -2.658132,-1.06447 -1.802213,-3.47825 0.176196,-0.49774 0.531626,-0.92128 1.594879,-1.64916 4.928178,-3.39054 91.216471,-34.00282 91.216471,-34.00282 0,0 2.43637,-0.81034 3.87328,-0.27136 a 2.1006841,2.073452 0 0 1 1.4316,1.54047 7.1063272,7.0142047 0 0 1 0.1929,1.93777 c -0.007,0.56372 -0.076,1.0862 -0.12835,1.90554 -0.52555,8.36952 -16.25258,70.83395 -16.25258,70.83395 0,0 -0.94098,3.65515 -4.31225,3.78034 a 6.1744619,6.0944196 0 0 1 -4.49984,-1.71813 c -6.61571,-5.61692 -29.48173,-20.78475 -34.53446,-24.12056 a 0.96452233,0.9520188 0 0 1 -0.41467,-0.67466 c -0.0706,-0.35157 0.3167,-0.7871 0.3167,-0.7871 0,0 39.81579,-34.93235 40.87525,-38.59949 0.082,-0.28411 -0.22784,-0.42429 -0.64403,-0.29985 -2.64446,0.96026 -48.48738,29.53507 -53.546943,32.68873 a 2.4378872,2.4062837 0 0 1 -1.124011,0.0675 z"
     fill="#ffffff"
     id="path17"
     style="stroke-width:0.754528" />
</svg>
