<?xml version="1.0" encoding="UTF-8" standalone="no"?>
<svg
   viewBox="0 0 32 32"
   version="1.1"
   id="svg3"
   sodipodi:docname="youtube-white.svg"
   inkscape:version="1.2.2 (b0a8486541, 2022-12-01)"
   xmlns:inkscape="http://www.inkscape.org/namespaces/inkscape"
   xmlns:sodipodi="http://sodipodi.sourceforge.net/DTD/sodipodi-0.dtd"
   xmlns="http://www.w3.org/2000/svg"
   xmlns:svg="http://www.w3.org/2000/svg">
  <defs
     id="defs7" />
  <sodipodi:namedview
     id="namedview5"
     pagecolor="#505050"
     bordercolor="#eeeeee"
     borderopacity="1"
     inkscape:showpageshadow="0"
     inkscape:pageopacity="0"
     inkscape:pagecheckerboard="0"
     inkscape:deskcolor="#505050"
     showgrid="false"
     inkscape:zoom="23.6875"
     inkscape:cx="14.226913"
     inkscape:cy="16.021108"
     inkscape:window-width="1920"
     inkscape:window-height="1080"
     inkscape:window-x="1920"
     inkscape:window-y="0"
     inkscape:window-maximized="1"
     inkscape:current-layer="svg3" />
  <path
     id="youtube"
     d="M28.24034,9.81073A3.21021,3.21021,0,0,0,25.9816,7.53732C23.9892,7,16,7,16,7s-7.98921,0-9.9816.53732A3.21021,3.21021,0,0,0,3.75967,9.81073,33.67486,33.67486,0,0,0,3.2258,16a33.6751,33.6751,0,0,0,.53387,6.18928,3.21018,3.21018,0,0,0,2.25874,2.27339C8.0108,25,16,25,16,25s7.98919,0,9.98159-.53734a3.21018,3.21018,0,0,0,2.25874-2.27339A33.67633,33.67633,0,0,0,28.77419,16,33.6761,33.6761,0,0,0,28.24034,9.81073ZM13.3871,19.7987V12.2013l6.67742,3.79882Z"
     fill="#262626"
     style="fill:#ffffff;fill-opacity:1" />
</svg>
